<svg width="17" height="11" viewBox="0 0 17 11" fill="none" xmlns="http://www.w3.org/2000/svg">
<path d="M8.5 10.0663C8.37588 10.0668 8.2529 10.0411 8.13815 9.99063C8.0234 9.94018 7.91916 9.86603 7.83143 9.77245L0.276932 1.72039C0.0996154 1.53139 -3.23605e-09 1.27506 0 1.00778C3.23605e-09 0.740499 0.0996154 0.484167 0.276932 0.295172C0.454248 0.106176 0.694741 3.44919e-09 0.945505 0C1.19627 -3.44919e-09 1.43676 0.106176 1.61408 0.295172L8.5 7.65073L15.3859 0.295172C15.5632 0.106176 15.8037 8.88828e-09 16.0545 1.51856e-08C16.3053 2.14829e-08 16.5458 0.106176 16.7231 0.295172C16.9004 0.484167 17 0.740499 17 1.00778C17 1.27506 16.9004 1.53139 16.7231 1.72039L9.16857 9.77245C9.08084 9.86603 8.9766 9.94018 8.86185 9.99063C8.7471 10.0411 8.62412 10.0668 8.5 10.0663Z" fill="#454545"/>
</svg>
