<svg width="56" height="56" viewBox="0 0 56 56" fill="none" xmlns="http://www.w3.org/2000/svg">
<path d="M28 54.0461C42.3851 54.0461 54.0465 42.3847 54.0465 27.9996C54.0465 13.6145 42.3851 1.95312 28 1.95312C13.6149 1.95312 1.95349 13.6145 1.95349 27.9996C1.95349 42.3847 13.6149 54.0461 28 54.0461Z" fill="#6B63F6"/>
<path fill-rule="evenodd" clip-rule="evenodd" d="M0 28C0 12.536 12.536 0 28 0C43.464 0 56 12.536 56 28C56 43.464 43.464 56 28 56C12.536 56 0 43.464 0 28ZM28 3.90698C14.6938 3.90698 3.90698 14.6938 3.90698 28C3.90698 41.3062 14.6938 52.093 28 52.093C41.3062 52.093 52.093 41.3062 52.093 28C52.093 14.6938 41.3062 3.90698 28 3.90698Z" fill="#6B63F6"/>
<path fill-rule="evenodd" clip-rule="evenodd" d="M37.1163 18.2344C38.1952 18.2344 39.0698 19.109 39.0698 20.1879V21.4902C39.0698 22.5691 38.1952 23.4437 37.1163 23.4437C36.0374 23.4437 35.1628 22.5691 35.1628 21.4902V20.1879C35.1628 19.109 36.0374 18.2344 37.1163 18.2344Z" fill="#FFFBFF"/>
<path fill-rule="evenodd" clip-rule="evenodd" d="M18.8836 18.2344C19.9625 18.2344 20.8371 19.109 20.8371 20.1879V21.4902C20.8371 22.5691 19.9625 23.4437 18.8836 23.4437C17.8047 23.4437 16.9301 22.5691 16.9301 21.4902V20.1879C16.9301 19.109 17.8047 18.2344 18.8836 18.2344Z" fill="#FFFBFF"/>
<path fill-rule="evenodd" clip-rule="evenodd" d="M19.702 33.0532C21.448 31.5012 24.172 29.9551 27.9998 29.9551C31.8276 29.9551 34.5516 31.5012 36.2977 33.0532C37.1624 33.8219 37.7878 34.5908 38.2015 35.1748C38.4091 35.4678 38.5657 35.7176 38.6745 35.9023C38.7289 35.9947 38.7716 36.0712 38.8029 36.129L38.8415 36.2015L38.8545 36.2267L38.8594 36.2364L38.8615 36.2406L38.8625 36.2425C38.8629 36.2434 38.8634 36.2442 37.1516 37.1001L38.8634 36.2442C39.3458 37.2092 38.9547 38.3826 37.9897 38.8651C37.0288 39.3456 35.8611 38.9597 35.3749 38.0035L35.3676 37.9898C35.3575 37.9713 35.3379 37.9358 35.3085 37.8858C35.2494 37.7856 35.1516 37.6284 35.0133 37.4331C34.7351 37.0403 34.3023 36.5069 33.702 35.9733C32.5178 34.9206 30.6837 33.8621 27.9998 33.8621C25.316 33.8621 23.4819 34.9206 22.2976 35.9733C21.6973 36.5069 21.2646 37.0403 20.9864 37.4331C20.848 37.6284 20.7503 37.7856 20.6912 37.8858C20.6617 37.9358 20.6421 37.9713 20.6321 37.9898L20.6247 38.0035C20.1385 38.9597 18.9709 39.3456 18.0099 38.8651C17.0449 38.3826 16.6538 37.2092 17.1363 36.2442L18.8835 37.1179C17.1363 36.2442 17.1367 36.2434 17.1372 36.2425L17.1381 36.2406L17.1402 36.2364L17.1452 36.2267L17.1582 36.2015L17.1967 36.129C17.228 36.0712 17.2707 35.9947 17.3252 35.9023C17.434 35.7176 17.5906 35.4678 17.7982 35.1748C18.2118 34.5908 18.8372 33.8219 19.702 33.0532ZM35.3754 38.0044C35.3754 38.0044 35.3754 38.0044 35.3754 38.0044L35.3754 38.0044Z" fill="#FFFBFF"/>
</svg>
