<svg width="199" height="39" viewBox="0 0 199 39" fill="none" xmlns="http://www.w3.org/2000/svg">
<path d="M90.7091 14.7232V12.4347H78.139V14.7232H90.7091ZM70.8423 4.37517H78.139V7.36017H90.7091V4.37517H98.0389V19.7977H74.7891L70.8423 16.1493V4.37517ZM99.6973 21.456V26.5968H94.3243V34.7558H87.0939V26.5968H82.915V34.7558H75.6515V26.5968H69.1508V21.456H99.6973ZM103.231 4.50784H130.693V9.68183H110.461V12.6337H130.461V17.7745H110.461V20.9917H131.091V26.0993H107.178L103.231 22.451V4.50784ZM132.086 29.6481V34.789H101.572V29.6481H132.086ZM134.558 4.4415H148.72V8.6205C148.72 11.8266 147.615 14.6015 145.403 16.9453C143.214 19.267 140.34 20.8037 136.78 21.5555L133.43 17.5092C135.133 17.089 136.67 16.4257 138.04 15.5192H134.558V10.6105H141.523C141.545 10.4336 141.556 10.2567 141.556 10.0798C141.578 9.90294 141.589 9.72605 141.589 9.54916H134.558V4.4415ZM149.616 4.40834H156.249V9.715H157.211V4.40834H163.844V21.2238H157.211V15.2538H156.249V21.2238H149.616V4.40834ZM156.581 29.7145V27.1275H144.74V29.7145H156.581ZM137.51 21.9535H163.844V34.8885H141.821L137.51 30.9085V21.9535ZM167.643 9.68183V4.50784H195.569V9.68183H167.643ZM167.345 18.8027H171.822L171.524 10.6437H178.787L179.085 18.8027H184.757L185.122 10.6437H192.352L191.987 18.8027H195.901V23.9435H171.291L167.345 20.2952V18.8027ZM196.929 29.6481V34.789H166.416V29.6481H196.929Z" fill="white"/>
<path d="M34.8192 38.6944H16.3207C15.2261 38.6944 14.176 38.2616 13.3994 37.4903L1.22452 25.4C0.440767 24.6217 0 23.5628 0 22.4583V4.14583C0 1.85615 1.85615 0 4.14583 0H34.8192C37.1088 0 38.965 1.85615 38.965 4.14582V34.5486C38.965 36.8383 37.1088 38.6944 34.8192 38.6944Z" fill="white"/>
<path d="M40.3569 23.2799L40.3569 15.4132C40.3569 14.9158 40.6242 14.4568 41.0568 14.2113L49.4258 9.46224C50.347 8.93947 51.4897 9.6049 51.4897 10.6642L51.4897 28.029C51.4897 29.0882 50.347 29.7537 49.4258 29.2309L41.0568 24.4818C40.6242 24.2363 40.3569 23.7773 40.3569 23.2799Z" fill="white"/>
</svg>
