<svg width="18" height="24" viewBox="0 0 18 24" fill="none" xmlns="http://www.w3.org/2000/svg">
<path d="M13.8 23.9999H4.2C3.08642 23.9989 2.01874 23.5485 1.23132 22.7478C0.443898 21.947 0.00105904 20.8612 0 19.7288L0 10.3728C0.00105793 9.67191 0.275325 9 0.762691 8.50438C1.25006 8.00875 1.91076 7.72984 2.6 7.72876H15.4C16.0892 7.72984 16.7499 8.00875 17.2373 8.50438C17.7247 9 17.9989 9.67191 18 10.3728V19.7288C17.9989 20.8612 17.5561 21.947 16.7687 22.7478C15.9813 23.5485 14.9136 23.9989 13.8 23.9999ZM2.6 9.76266C2.44087 9.76266 2.28826 9.82694 2.17574 9.94137C2.06321 10.0558 2 10.211 2 10.3728V19.7288C2.00106 20.3218 2.23318 20.8902 2.64553 21.3096C3.05788 21.7289 3.61685 21.965 4.2 21.966H13.8C14.3832 21.965 14.9421 21.7289 15.3545 21.3096C15.7668 20.8902 15.9989 20.3218 16 19.7288V10.3728C16 10.211 15.9368 10.0558 15.8243 9.94137C15.7117 9.82694 15.5591 9.76266 15.4 9.76266H2.6Z" fill="white"/>
<path d="M13.8 9.76271H4.20001C4.06869 9.76271 3.93865 9.73641 3.81733 9.6853C3.696 9.63419 3.58576 9.55929 3.49291 9.46485C3.40005 9.37042 3.32639 9.25831 3.27613 9.13493C3.22588 9.01155 3.20001 8.87931 3.20001 8.74576V4.27119C3.20107 3.13873 3.64391 2.05296 4.43133 1.25219C5.21876 0.451421 6.28643 0.00107699 7.40001 0L10.6 0C11.7136 0.00107699 12.7813 0.451421 13.5687 1.25219C14.3561 2.05296 14.799 3.13873 14.8 4.27119V8.74576C14.8 8.87931 14.7741 9.01155 14.7239 9.13493C14.6736 9.25831 14.6 9.37042 14.5071 9.46485C14.4143 9.55929 14.304 9.63419 14.1827 9.6853C14.0614 9.73641 13.9313 9.76271 13.8 9.76271ZM5.20001 7.72881H12.8V4.27119C12.799 3.67815 12.5668 3.10971 12.1545 2.69037C11.7421 2.27103 11.1832 2.03497 10.6 2.0339H7.40001C6.81686 2.03497 6.2579 2.27103 5.84555 2.69037C5.43319 3.10971 5.20107 3.67815 5.20001 4.27119V7.72881Z" fill="white"/>
<path d="M9 19.1187C8.73478 19.1187 8.48043 19.0116 8.29289 18.8208C8.10536 18.6301 8 18.3715 8 18.1018V14.8475C8 14.5778 8.10536 14.3191 8.29289 14.1284C8.48043 13.9377 8.73478 13.8306 9 13.8306C9.26522 13.8306 9.51957 13.9377 9.70711 14.1284C9.89464 14.3191 10 14.5778 10 14.8475V18.1018C10 18.3715 9.89464 18.6301 9.70711 18.8208C9.51957 19.0116 9.26522 19.1187 9 19.1187Z" fill="white"/>
<path d="M9.80001 15.8645H8.20001C7.9348 15.8645 7.68044 15.7573 7.49291 15.5666C7.30537 15.3759 7.20001 15.1172 7.20001 14.8475C7.20001 14.5778 7.30537 14.3191 7.49291 14.1284C7.68044 13.9377 7.9348 13.8306 8.20001 13.8306H9.80001C10.0652 13.8306 10.3196 13.9377 10.5071 14.1284C10.6947 14.3191 10.8 14.5778 10.8 14.8475C10.8 15.1172 10.6947 15.3759 10.5071 15.5666C10.3196 15.7573 10.0652 15.8645 9.80001 15.8645Z" fill="white"/>
</svg>
