<svg width="17" height="22" viewBox="0 0 17 22" fill="none" xmlns="http://www.w3.org/2000/svg">
<path d="M9.25556 14.5424H7.74445C7.49397 14.5424 7.25374 14.4442 7.07662 14.2693C6.89951 14.0945 6.8 13.8574 6.8 13.6102C6.8 13.3629 6.89951 13.1258 7.07662 12.951C7.25374 12.7762 7.49397 12.678 7.74445 12.678H9.25556C9.50604 12.678 9.74626 12.7762 9.92338 12.951C10.1005 13.1258 10.2 13.3629 10.2 13.6102C10.2 13.8574 10.1005 14.0945 9.92338 14.2693C9.74626 14.4442 9.50604 14.5424 9.25556 14.5424Z" fill="white"/>
<path d="M13.0333 22H3.96667C2.91495 21.999 1.90659 21.5862 1.16291 20.8521C0.419237 20.1181 0.00100021 19.1228 0 18.0847L0 9.50845C0.000999153 8.86594 0.26003 8.25002 0.720319 7.7957C1.18061 7.34138 1.80461 7.0857 2.45556 7.08472H14.5444C15.1954 7.0857 15.8194 7.34138 16.2797 7.7957C16.74 8.25002 16.999 8.86594 17 9.50845V18.0847C16.999 19.1228 16.5808 20.1181 15.8371 20.8521C15.0934 21.5862 14.0851 21.999 13.0333 22ZM2.45556 8.94912C2.30527 8.94912 2.16113 9.00805 2.05486 9.11295C1.94859 9.21784 1.88889 9.3601 1.88889 9.50845V18.0847C1.88989 18.6283 2.10912 19.1494 2.49856 19.5338C2.888 19.9182 3.41591 20.1346 3.96667 20.1356H13.0333C13.5841 20.1346 14.112 19.9182 14.5014 19.5338C14.8909 19.1494 15.1101 18.6283 15.1111 18.0847V9.50845C15.1111 9.3601 15.0514 9.21784 14.9451 9.11295C14.8389 9.00805 14.6947 8.94912 14.5444 8.94912H2.45556Z" fill="white"/>
<path d="M13.0333 8.94915C12.9093 8.94915 12.7865 8.92504 12.6719 8.87819C12.5573 8.83135 12.4532 8.76268 12.3655 8.67612C12.2778 8.58955 12.2082 8.48679 12.1608 8.37369C12.1133 8.26059 12.0889 8.13937 12.0889 8.01695V3.91525C12.0879 3.37164 11.8687 2.85057 11.4792 2.46618C11.0898 2.08178 10.5619 1.86539 10.0111 1.86441H6.98888C6.43813 1.86539 5.91022 2.08178 5.52078 2.46618C5.13133 2.85057 4.9121 3.37164 4.91111 3.91525C4.91111 4.16249 4.8116 4.3996 4.63448 4.57442C4.45737 4.74924 4.21714 4.84746 3.96666 4.84746C3.71618 4.84746 3.47596 4.74924 3.29884 4.57442C3.12172 4.3996 3.02222 4.16249 3.02222 3.91525C3.02322 2.87717 3.44145 1.88188 4.18513 1.14784C4.92881 0.413803 5.93716 0.000987245 6.98888 0L10.0111 0C11.0628 0.000987245 12.0712 0.413803 12.8149 1.14784C13.5585 1.88188 13.9768 2.87717 13.9778 3.91525V8.01695C13.9778 8.13937 13.9533 8.26059 13.9059 8.37369C13.8584 8.48679 13.7889 8.58955 13.7012 8.67612C13.6135 8.76268 13.5093 8.83135 13.3947 8.87819C13.2802 8.92504 13.1574 8.94915 13.0333 8.94915Z" fill="white"/>
<path d="M8.5 17.5254C8.24952 17.5254 8.0093 17.4272 7.83218 17.2524C7.65506 17.0776 7.55556 16.8405 7.55556 16.5932V13.6102C7.55556 13.3629 7.65506 13.1258 7.83218 12.951C8.0093 12.7762 8.24952 12.678 8.5 12.678C8.75048 12.678 8.99071 12.7762 9.16782 12.951C9.34494 13.1258 9.44445 13.3629 9.44445 13.6102V16.5932C9.44445 16.8405 9.34494 17.0776 9.16782 17.2524C8.99071 17.4272 8.75048 17.5254 8.5 17.5254Z" fill="white"/>
</svg>
