<svg width="24" height="24" viewBox="0 0 24 24" fill="none" xmlns="http://www.w3.org/2000/svg">
<path d="M18.494 21.9998H5.50688C5.12642 22.0008 4.75069 21.9217 4.40814 21.7684C4.0656 21.6151 3.7652 21.3917 3.52971 21.115C3.30052 20.8493 3.13956 20.5388 3.05901 20.207C2.97845 19.8752 2.9804 19.5308 3.06471 19.1998C3.54115 17.3372 4.68257 15.6779 6.30424 14.4905C7.92591 13.3032 9.93291 12.6572 12.0004 12.6572C14.0679 12.6572 16.0749 13.3032 17.6966 14.4905C19.3183 15.6779 20.4597 17.3372 20.9361 19.1998C21.0199 19.531 21.0213 19.8756 20.9401 20.2074C20.8589 20.5392 20.6973 20.8496 20.4675 21.115C20.2327 21.3916 19.933 21.615 19.591 21.7683C19.2491 21.9216 18.8739 22.0008 18.494 21.9998ZM11.9986 14.3489C10.3395 14.3409 8.72668 14.8547 7.42423 15.8062C6.12179 16.7577 5.20694 18.0905 4.82951 19.5862C4.80988 19.6692 4.81054 19.7552 4.83145 19.8379C4.85235 19.9206 4.89298 19.9979 4.95034 20.0642C5.01683 20.1413 5.10165 20.2031 5.19819 20.2448C5.29472 20.2866 5.40036 20.3071 5.50688 20.3049H18.494C18.5974 20.3048 18.6996 20.2831 18.7928 20.2414C18.8859 20.1998 18.9678 20.1392 19.0322 20.0642C19.0905 19.9984 19.1317 19.9211 19.1527 19.8382C19.1736 19.7553 19.1737 19.6691 19.153 19.5862C18.7761 18.0927 17.8635 16.7617 16.564 15.8105C15.2646 14.8592 13.6551 14.344 11.9986 14.3489Z" fill="#C7CADD"/>
<path d="M11.9984 11.0237C11.0345 11.0237 10.0923 10.7591 9.29087 10.2633C8.48945 9.76756 7.86482 9.0629 7.49596 8.23847C7.12711 7.41404 7.0306 6.50685 7.21864 5.63164C7.40668 4.75642 7.87082 3.95249 8.55238 3.32149C9.23393 2.6905 10.1023 2.26079 11.0476 2.0867C11.993 1.91261 12.9728 2.00195 13.8633 2.34345C14.7538 2.68494 15.5149 3.26323 16.0504 4.0052C16.5859 4.74718 16.8717 5.6195 16.8717 6.51186C16.8707 7.7082 16.357 8.85529 15.4433 9.70123C14.5296 10.5472 13.2906 11.0228 11.9984 11.0237ZM11.9984 3.69491C11.3966 3.69491 10.8083 3.86012 10.308 4.16965C9.8076 4.47918 9.41761 4.91913 9.18732 5.43386C8.95703 5.94859 8.89678 6.51498 9.01418 7.06142C9.13158 7.60785 9.42136 8.10978 9.84688 8.50374C10.2724 8.89769 10.8146 9.16598 11.4048 9.27467C11.995 9.38337 12.6068 9.32758 13.1627 9.11437C13.7187 8.90117 14.1939 8.54011 14.5282 8.07687C14.8626 7.61362 15.041 7.069 15.041 6.51186C15.04 5.76503 14.7192 5.04905 14.1488 4.52097C13.5784 3.99288 12.805 3.69581 11.9984 3.69491Z" fill="#C7CADD"/>
</svg>
