<svg width="17" height="17" viewBox="0 0 17 17" fill="none" xmlns="http://www.w3.org/2000/svg">
<path fill-rule="evenodd" clip-rule="evenodd" d="M0.625 1.25C0.970178 1.25 1.25 1.52982 1.25 1.875V4.58333H3.95833C4.30351 4.58333 4.58333 4.86316 4.58333 5.20833C4.58333 5.55351 4.30351 5.83333 3.95833 5.83333H0.625C0.279822 5.83333 0 5.55351 0 5.20833V1.875C0 1.52982 0.279822 1.25 0.625 1.25Z" fill="#898989"/>
<path fill-rule="evenodd" clip-rule="evenodd" d="M2.37976 2.37976C3.84939 0.910102 5.8815 0 8.12499 0C12.6123 0 16.25 3.6377 16.25 8.125C16.25 12.6123 12.6123 16.25 8.12499 16.25C5.88149 16.25 3.84938 15.3399 2.37975 13.8702C2.13568 13.6261 2.13568 13.2304 2.37977 12.9863C2.62385 12.7423 3.01957 12.7423 3.26365 12.9864C4.50843 14.2312 6.22632 15 8.12499 15C11.9219 15 15 11.9219 15 8.125C15 4.32805 11.9219 1.25 8.12499 1.25C6.22632 1.25 4.50843 2.01883 3.26365 3.26364C2.93063 3.59666 2.39129 4.1823 1.92723 4.69396C1.69697 4.94784 1.4881 5.18036 1.33676 5.34942C1.26112 5.43393 1.1999 5.50252 1.15765 5.54994L1.09256 5.62307L0.624991 5.20833L0.157682 4.79331L0.224443 4.7183C0.267237 4.67028 0.329066 4.60099 0.40539 4.51573C0.557997 4.34524 0.768763 4.11062 1.00132 3.8542C1.46291 3.34527 2.02194 2.73758 2.37976 2.37976C2.37977 2.37976 2.37976 2.37977 2.37976 2.37976ZM0.209996 5.67567C-0.048107 5.44647 -0.0715136 5.05141 0.157682 4.79331L0.624991 5.20833L1.09256 5.62307C0.863366 5.88117 0.468099 5.90487 0.209996 5.67567Z" fill="#898989"/>
</svg>
