<svg width="33" height="33" viewBox="0 0 33 33" fill="none" xmlns="http://www.w3.org/2000/svg">
<g clip-path="url(#clip0_2_5288)">
<rect width="33" height="33" fill="white" fill-opacity="0.8"/>
<path d="M17.6242 33H17.4787C16.946 32.9755 16.4334 32.7896 16.0088 32.4669C15.5842 32.1443 15.2678 31.7001 15.1016 31.1934L11.7848 21.2151L1.80654 17.8983C1.30397 17.73 0.863528 17.4147 0.542297 16.9931C0.221066 16.5716 0.0338539 16.0633 0.00492233 15.5341C-0.0240092 15.0049 0.106674 14.4792 0.380036 14.0251C0.653397 13.571 1.05683 13.2096 1.53806 12.9875L29.2469 0.24613C29.7377 0.0213422 30.2855 -0.0479193 30.8168 0.0476426C31.3481 0.143205 31.8375 0.399016 32.2192 0.780737C32.6009 1.16246 32.8568 1.65182 32.9523 2.18313C33.0479 2.71444 32.9786 3.26227 32.7538 3.75308L20.0237 31.4619C19.8139 31.9218 19.476 32.3116 19.0505 32.5844C18.6249 32.8572 18.1297 33.0015 17.6242 33ZM3.08179 15.359L13.3565 18.7821C13.5625 18.8503 13.7497 18.9658 13.9031 19.1192C14.0565 19.2727 14.172 19.4598 14.2403 19.6658L17.6633 29.9405L30.0411 2.95884L3.08179 15.359Z" fill="#6B63F6"/>
<path d="M12.8923 21.5061C12.7085 21.5067 12.5264 21.471 12.3565 21.4009C12.1866 21.3308 12.0322 21.2278 11.9023 21.0978C11.642 20.834 11.4961 20.4784 11.4961 20.1078C11.4961 19.7372 11.642 19.3816 11.9023 19.1178L14.6318 16.3939C14.8982 16.1558 15.2456 16.0286 15.6028 16.0386C15.96 16.0486 16.2998 16.195 16.5525 16.4476C16.8051 16.7003 16.9515 17.0401 16.9615 17.3973C16.9715 17.7544 16.8443 18.1019 16.6062 18.3683L13.8823 21.0978C13.7524 21.2278 13.598 21.3308 13.4281 21.4009C13.2582 21.471 13.0761 21.5067 12.8923 21.5061Z" fill="#6B63F6"/>
</g>
<defs>
<clipPath id="clip0_2_5288">
<rect width="33" height="33" fill="white"/>
</clipPath>
</defs>
</svg>
