<svg width="27" height="17" viewBox="0 0 27 17" fill="none" xmlns="http://www.w3.org/2000/svg">
<path d="M15.4633 17H4.70621C3.45841 16.9988 2.26206 16.5163 1.37973 15.6582C0.4974 14.8001 0.00118669 13.6366 0 12.4231L0 4.57692C0.00118669 3.3634 0.4974 2.19991 1.37973 1.34182C2.26206 0.483735 3.45841 0.00115409 4.70621 0L15.4633 0C16.7111 0.00115409 17.9074 0.483735 18.7898 1.34182C19.6721 2.19991 20.1683 3.3634 20.1695 4.57692V12.4231C20.1683 13.6366 19.6721 14.8001 18.7898 15.6582C17.9074 16.5163 16.7111 16.9988 15.4633 17ZM4.70621 2.17949C4.05278 2.18064 3.42644 2.4336 2.96439 2.88295C2.50234 3.33231 2.24224 3.94144 2.24105 4.57692V12.4231C2.24224 13.0586 2.50234 13.6677 2.96439 14.117C3.42644 14.5664 4.05278 14.8194 4.70621 14.8205H15.4633C16.1167 14.8194 16.743 14.5664 17.2051 14.117C17.6671 13.6677 17.9273 13.0586 17.9284 12.4231V4.57692C17.9273 3.94144 17.6671 3.33231 17.2051 2.88295C16.743 2.4336 16.1167 2.18064 15.4633 2.17949H4.70621Z" fill="white"/>
<path d="M25.3241 14.1628C25.1691 14.16 25.0165 14.1259 24.8759 14.0626L18.6009 11.299C18.4601 11.2445 18.3322 11.1628 18.2248 11.0589C18.1173 10.9549 18.0327 10.8308 17.976 10.6942C17.9193 10.5575 17.8917 10.4111 17.8949 10.2637C17.8981 10.1164 17.9319 9.97123 17.9944 9.83698C18.0569 9.70273 18.1467 9.5822 18.2585 9.48269C18.3703 9.38317 18.5016 9.30674 18.6446 9.258C18.7876 9.20927 18.9393 9.18925 19.0905 9.19916C19.2417 9.20907 19.3892 9.24869 19.5242 9.31564L24.2036 11.3818V5.61487L19.5108 7.66795C19.238 7.78702 18.9277 7.79582 18.6482 7.69241C18.3687 7.58901 18.1429 7.38186 18.0205 7.11654C17.898 6.85122 17.889 6.54947 17.9953 6.27766C18.1017 6.00585 18.3147 5.78625 18.5875 5.66718L24.8624 2.92103C25.0339 2.84563 25.2221 2.81343 25.4096 2.8274C25.5972 2.84136 25.7782 2.90104 25.9358 3.00092C26.0935 3.10081 26.2227 3.23769 26.3116 3.39894C26.4005 3.56019 26.4463 3.74062 26.4446 3.92359V13.0774C26.4447 13.2598 26.3975 13.4393 26.3074 13.5993C26.2174 13.7593 26.0873 13.8947 25.9292 13.9928C25.748 14.1039 25.5382 14.1629 25.3241 14.1628Z" fill="white"/>
<rect x="2" y="1" width="16" height="15" fill="white"/>
<path d="M13 6.75L25 5V12L13 11.125V6.75Z" fill="white"/>
</svg>
